<svg width="375" height="199" viewBox="0 0 375 199" fill="none" xmlns="http://www.w3.org/2000/svg">
<defs>
<clipPath >
<path d="M-6 114V170.528V198H381V73.8491L375.763 56.4151H350.626L346.437 73.8491V129.321H343.819V127.736H338.582V93.9245H331.25L327.585 97.6226L323.919 93.9245H319.729V97.6226H315.54V125.623L313.445 127.736V129.321H309.256V127.736H301.401V122.981H297.735V127.736H295.64V143.585H291.451V129.321H288.309V124.038H276.264V129.321V142H269.456V133.019L266.314 121.396L263.172 133.019V142H258.982V139.887H251.127V146.226H247.985V143.585H243.796V114H241.177L238.559 107.66H226.514V112.415L215.517 117.698V122.981H201.378V129.321H197.188V133.019H194.046V146.226H191.428V152.038H189.333V54.8302H181.478V56.4151H180.43V60.1132H175.717V56.4151H165.767V58H157.912V60.1132H156.341V99.7358H153.723V158.377H151.104V73.8491L140.631 63.283V8.86792H132.775V14.1509H121.254V2L114.447 8.86792V14.1509H111.828V51.1321H107.115V43.2075H98.7361V93.9245H92.9756V51.1321L74.6468 56.4151H69.41V51.1321H61.0311V158.377H58.9364V161.547H56.318V114H49.5101V107.66H36.9418V114H28.0392V158.906H22.2788V114H14.9472V107.66L2.90257 105.547V114H-6Z" fill="black" stroke="black"/>
</clipPath>
</defs>
</svg>
